<svg width="520" height="497" viewBox="0 0 520 497" fill="none" xmlns="http://www.w3.org/2000/svg">
<rect x="-0.143814" y="7.25249" width="256.369" height="250.26" transform="matrix(0.67382 0.738896 -0.702583 0.711602 292.711 2.19787)" stroke="white" stroke-width="10"/>
<path d="M148.079 263.324L162.587 278.407L160.324 280.825L148.511 268.544L140.54 277.059L151.687 288.649L149.424 291.067L138.277 279.477L127.649 290.831L124.953 288.029L148.079 263.324ZM162.705 314.763L150.46 302.032L141.927 305.676L139.132 302.77L172.573 288.79L174.936 291.246L162.125 326.675L159.363 323.804L162.705 314.763ZM163.971 311.377L170.655 293.364L153.656 300.652L163.971 311.377ZM172.601 338.119C168.94 334.314 166.985 330.23 166.736 325.868L169.867 324.767C170.058 326.994 170.545 328.952 171.328 330.642C172.132 332.354 173.333 334.04 174.93 335.701C176.816 337.661 178.63 338.786 180.372 339.076C182.114 339.366 183.641 338.811 184.953 337.409C185.718 336.591 186.098 335.672 186.091 334.65C186.084 333.629 185.823 332.551 185.309 331.417C184.795 330.283 184.014 328.849 182.967 327.116C181.563 324.78 180.503 322.757 179.787 321.044C179.093 319.354 178.806 317.673 178.927 316C179.07 314.351 179.83 312.791 181.208 311.319C182.52 309.917 184.023 309.037 185.716 308.677C187.454 308.317 189.24 308.514 191.073 309.267C192.95 310.021 194.743 311.285 196.451 313.061C198.071 314.745 199.327 316.582 200.222 318.572C201.139 320.585 201.615 322.602 201.651 324.621L198.553 325.756C198.384 323.599 197.93 321.698 197.192 320.055C196.498 318.412 195.486 316.898 194.155 315.514C192.336 313.623 190.522 312.544 188.714 312.278C186.95 312.011 185.391 312.602 184.035 314.051C182.876 315.289 182.456 316.696 182.775 318.273C183.094 319.849 183.966 321.816 185.392 324.174C186.929 326.787 188.067 328.915 188.805 330.558C189.565 332.178 189.918 333.812 189.863 335.46C189.83 337.132 189.136 338.692 187.78 340.14C186.468 341.542 184.965 342.4 183.271 342.713C181.599 343.049 179.835 342.829 177.98 342.052C176.146 341.252 174.353 339.941 172.601 338.119ZM211.945 334.563L203.793 326.088L206.089 323.635L225.189 343.492L222.893 345.945L214.707 337.435L193.877 359.687L191.116 356.816L211.945 334.563Z" fill="white"/>
<path d="M388.4 337.91C390.104 336.877 391.802 336.494 393.496 336.761C395.213 337.004 396.793 337.897 398.236 339.439C400.27 341.612 401.157 343.986 400.897 346.561C400.615 349.112 399.232 351.679 396.748 354.263L386.965 364.433L363.839 339.728L373.256 329.938C375.674 327.424 378.074 326.036 380.454 325.773C382.835 325.511 384.987 326.408 386.912 328.464C388.158 329.795 388.897 331.286 389.128 332.936C389.381 334.562 389.139 336.22 388.4 337.91ZM376.802 347.894L383.124 341.321C384.876 339.499 385.846 337.753 386.034 336.083C386.244 334.39 385.682 332.831 384.348 331.406C381.724 328.602 378.637 329.046 375.087 332.736L368.765 339.309L376.802 347.894ZM394.251 352.156C396.092 350.242 397.117 348.485 397.326 346.885C397.536 345.238 396.93 343.655 395.508 342.137C392.666 339.1 389.447 339.449 385.854 343.185L379.032 350.277L387.429 359.248L394.251 352.156ZM419.465 331.198C417.291 333.458 414.913 334.916 412.332 335.572C409.772 336.204 407.175 336.024 404.538 335.031C401.902 334.038 399.381 332.257 396.975 329.687C394.548 327.094 392.87 324.413 391.942 321.644C391.014 318.829 390.878 316.089 391.535 313.424C392.192 310.712 393.619 308.215 395.815 305.932C398.011 303.649 400.389 302.191 402.948 301.558C405.508 300.879 408.106 301.059 410.742 302.099C413.379 303.091 415.9 304.873 418.305 307.443C420.711 310.012 422.377 312.705 423.305 315.52C424.212 318.312 424.336 321.063 423.679 323.775C423.044 326.463 421.639 328.938 419.465 331.198ZM417.169 328.745C419.654 326.162 420.764 323.279 420.499 320.097C420.234 316.869 418.572 313.619 415.51 310.348C412.448 307.078 409.41 305.281 406.394 304.959C403.379 304.637 400.618 305.779 398.111 308.385C395.627 310.968 394.516 313.874 394.781 317.102C395.046 320.284 396.698 323.499 399.737 326.746C402.777 329.993 405.816 331.79 408.853 332.135C411.912 332.458 414.685 331.328 417.169 328.745ZM452.288 296.521L449.06 299.877L431.998 296.941L434.552 314.96L431.324 318.316L428.401 296.394L408.632 293.16L411.859 289.805L427.997 292.596L425.569 275.552L428.763 272.231L431.561 293.177L452.288 296.521Z" fill="white"/>
<line y1="-5" x2="260.778" y2="-5" transform="matrix(0.680144 0.733078 -0.696422 0.717633 221.709 74.3442)" stroke="white" stroke-width="10"/>
<g filter="url(#filter0_d)">
<line y1="-5" x2="43.8826" y2="-5" transform="matrix(-0.730441 0.682975 -0.644027 -0.765003 372.776 93.3448)" stroke="white" stroke-width="10"/>
</g>
<defs>
<filter id="filter0_d" x="336.722" y="93.3448" width="46.4939" height="45.6208" filterUnits="userSpaceOnUse" color-interpolation-filters="sRGB">
<feFlood flood-opacity="0" result="BackgroundImageFix"/>
<feColorMatrix in="SourceAlpha" type="matrix" values="0 0 0 0 0 0 0 0 0 0 0 0 0 0 0 0 0 0 127 0"/>
<feOffset dy="4"/>
<feGaussianBlur stdDeviation="2"/>
<feColorMatrix type="matrix" values="0 0 0 0 0 0 0 0 0 0 0 0 0 0 0 0 0 0 0.25 0"/>
<feBlend mode="normal" in2="BackgroundImageFix" result="effect1_dropShadow"/>
<feBlend mode="normal" in="SourceGraphic" in2="effect1_dropShadow" result="shape"/>
</filter>
</defs>
</svg>
